<?xml version="1.0" encoding="utf-8"?>
<!-- Generator: Adobe Illustrator 22.1.0, SVG Export Plug-In . SVG Version: 6.00 Build 0)  -->
<svg version="1.1" id="Layer_1" xmlns="http://www.w3.org/2000/svg" xmlns:xlink="http://www.w3.org/1999/xlink" x="0px" y="0px"
	 viewBox="0 0 365.9 68.3" style="enable-background:new 0 0 365.9 68.3;" xml:space="preserve">
<style type="text/css">
	.st0{fill:#4F9997;}
	.st1{fill:#93CECE;}
	.st2{fill:#1B6D6B;}
</style>
<g>
	<path d="M198.4,45.6c0.2,0,0.5,0,0.7,0.1c0.2,0.1,0.5,0.2,0.7,0.5l4,4.2c-1.8,2.3-4,4-6.6,5.2s-5.8,1.8-9.4,1.8
		c-3.3,0-6.3-0.6-8.9-1.7S174,53,172.2,51c-1.8-2-3.2-4.4-4.2-7.1c-1-2.7-1.5-5.7-1.5-8.9c0-3.3,0.5-6.3,1.6-9
		c1.1-2.7,2.5-5.1,4.5-7.1s4.2-3.5,6.9-4.6c2.7-1.1,5.6-1.6,8.9-1.6c1.6,0,3.2,0.1,4.6,0.4s2.8,0.7,4.1,1.2c1.3,0.5,2.4,1.1,3.5,1.8
		c1.1,0.7,2,1.5,2.8,2.3l-3.4,4.6c-0.2,0.3-0.5,0.5-0.8,0.8c-0.3,0.2-0.7,0.3-1.3,0.3c-0.4,0-0.7-0.1-1-0.2c-0.3-0.2-0.7-0.4-1-0.6
		c-0.4-0.2-0.8-0.5-1.2-0.8s-0.9-0.5-1.5-0.8c-0.6-0.2-1.3-0.4-2.1-0.6c-0.8-0.2-1.7-0.2-2.8-0.2c-1.7,0-3.2,0.3-4.6,0.9
		c-1.4,0.6-2.6,1.5-3.6,2.7c-1,1.2-1.8,2.6-2.3,4.4c-0.6,1.7-0.8,3.7-0.8,5.9c0,2.2,0.3,4.2,0.9,6c0.6,1.7,1.4,3.2,2.5,4.4
		s2.3,2.1,3.7,2.7c1.4,0.6,2.9,0.9,4.5,0.9c0.9,0,1.8,0,2.5-0.1c0.8-0.1,1.5-0.2,2.1-0.4s1.3-0.5,1.9-0.8c0.6-0.3,1.2-0.8,1.8-1.3
		c0.2-0.2,0.5-0.4,0.8-0.5C197.8,45.7,198.1,45.6,198.4,45.6z"/>
	<path d="M262.1,35c0,3.2-0.5,6.1-1.6,8.8c-1.1,2.7-2.6,5.1-4.6,7.1c-2,2-4.4,3.6-7.2,4.7s-5.9,1.7-9.3,1.7c-3.4,0-6.5-0.6-9.3-1.7
		c-2.8-1.1-5.2-2.7-7.2-4.7c-2-2-3.5-4.4-4.6-7.1s-1.6-5.7-1.6-8.8c0-3.2,0.5-6.1,1.6-8.8c1.1-2.7,2.6-5.1,4.6-7.1
		c2-2,4.4-3.6,7.2-4.7c2.8-1.1,5.9-1.7,9.3-1.7c3.4,0,6.5,0.6,9.3,1.7c2.8,1.2,5.2,2.7,7.2,4.7c2,2,3.5,4.4,4.6,7.1
		C261.6,29,262.1,31.9,262.1,35z M251.7,35c0-2.2-0.3-4.1-0.8-5.8c-0.6-1.7-1.4-3.2-2.4-4.4c-1-1.2-2.3-2.1-3.9-2.8
		c-1.5-0.6-3.3-1-5.2-1c-2,0-3.7,0.3-5.2,1s-2.8,1.6-3.9,2.8c-1,1.2-1.9,2.7-2.4,4.4c-0.6,1.7-0.8,3.7-0.8,5.8
		c0,2.2,0.3,4.1,0.8,5.9s1.4,3.2,2.4,4.4c1,1.2,2.3,2.1,3.9,2.7c1.5,0.6,3.3,0.9,5.2,0.9c1.9,0,3.7-0.3,5.2-0.9
		c1.5-0.6,2.8-1.5,3.9-2.7c1-1.2,1.9-2.7,2.4-4.4C251.5,39.2,251.7,37.2,251.7,35z"/>
	<path d="M319.7,35c0,3.2-0.5,6.1-1.6,8.7s-2.6,5-4.6,6.9c-2,1.9-4.4,3.5-7.2,4.6s-5.9,1.6-9.3,1.6h-17V13.2h17
		c3.4,0,6.5,0.6,9.3,1.6c2.8,1.1,5.2,2.6,7.2,4.6c2,1.9,3.5,4.2,4.6,6.9S319.7,31.9,319.7,35z M309.4,35c0-2.2-0.3-4.1-0.8-5.9
		c-0.6-1.7-1.4-3.2-2.4-4.4c-1-1.2-2.3-2.1-3.9-2.8c-1.5-0.6-3.3-1-5.2-1h-6.8v28.1h6.8c1.9,0,3.7-0.3,5.2-1
		c1.5-0.6,2.8-1.6,3.9-2.8c1-1.2,1.9-2.7,2.4-4.4C309.1,39.2,309.4,37.2,309.4,35z"/>
	<path d="M347.9,21v10.2h13.7v7.5h-13.7v10.4h17.9v7.8h-28.1V13.2h28.1V21H347.9z"/>
</g>
<g>
	<path class="st0" d="M125.9,42.3h1.6c1.5,0,2.6-0.5,3.2-1.4l9.8-14.3c0.6-0.8,1.2-1.3,1.9-1.6c0.7-0.3,1.5-0.4,2.5-0.4h8.8
		l-13,17.7c-0.9,1.2-1.9,2.1-3,2.6c0.8,0.3,1.5,0.7,2.1,1.2c0.6,0.5,1.2,1.2,1.7,2l13.2,20.3h-9.1c-0.6,0-1.1,0-1.5-0.1
		c-0.4-0.1-0.8-0.2-1.1-0.4c-0.3-0.2-0.6-0.4-0.8-0.6c-0.2-0.2-0.4-0.5-0.6-0.8L132,51.2c-0.4-0.6-0.8-1-1.4-1.2
		c-0.6-0.2-1.3-0.3-2.2-0.3h-2.5v18.6h-10.1V24.6h10.1V42.3z"/>
</g>
<g>
	<path class="st1" d="M72.4,17.7H74c1.5,0,2.6-0.5,3.2-1.4L87.1,2c0.6-0.8,1.2-1.3,1.9-1.6C89.6,0.1,90.5,0,91.5,0h8.8l-13,17.7
		c-0.9,1.2-1.9,2.1-3,2.6c0.8,0.3,1.5,0.7,2.1,1.2c0.6,0.5,1.2,1.2,1.7,2l13.2,20.3h-9.1c-0.6,0-1.1,0-1.5-0.1
		c-0.4-0.1-0.8-0.2-1.1-0.4c-0.3-0.2-0.6-0.4-0.8-0.6c-0.2-0.2-0.4-0.5-0.6-0.8l-9.9-15.2c-0.4-0.6-0.8-1-1.4-1.2
		c-0.6-0.2-1.3-0.3-2.2-0.3h-2.5v18.6H62.2V0h10.1V17.7z"/>
</g>
<g>
	<path class="st2" d="M45.4,35c0,3.2-0.5,6.1-1.6,8.8c-1.1,2.7-2.6,5.1-4.6,7.1c-2,2-4.4,3.6-7.2,4.7s-5.9,1.7-9.3,1.7
		c-3.4,0-6.5-0.6-9.3-1.7c-2.8-1.1-5.2-2.7-7.2-4.7c-2-2-3.5-4.4-4.6-7.1C0.5,41.1,0,38.2,0,35c0-3.2,0.5-6.1,1.6-8.8
		c1.1-2.7,2.6-5.1,4.6-7.1c2-2,4.4-3.6,7.2-4.7c2.8-1.1,5.9-1.7,9.3-1.7c3.4,0,6.5,0.6,9.3,1.7c2.8,1.2,5.2,2.7,7.2,4.7
		c2,2,3.5,4.4,4.6,7.1C44.9,29,45.4,31.9,45.4,35z M35,35c0-2.2-0.3-4.1-0.8-5.8c-0.6-1.7-1.4-3.2-2.4-4.4c-1.1-1.2-2.3-2.1-3.9-2.8
		c-1.5-0.6-3.3-1-5.2-1c-2,0-3.7,0.3-5.2,1c-1.5,0.6-2.8,1.6-3.9,2.8c-1.1,1.2-1.9,2.7-2.4,4.4c-0.6,1.7-0.8,3.7-0.8,5.8
		c0,2.2,0.3,4.1,0.8,5.9c0.6,1.7,1.4,3.2,2.4,4.4c1,1.2,2.3,2.1,3.9,2.7c1.5,0.6,3.3,0.9,5.2,0.9c1.9,0,3.7-0.3,5.2-0.9
		c1.5-0.6,2.8-1.5,3.9-2.7c1-1.2,1.9-2.7,2.4-4.4C34.8,39.2,35,37.2,35,35z"/>
</g>
</svg>
